<?xml version="1.0" encoding="UTF-8" standalone="no"?>
<svg
   xmlns:dc="http://purl.org/dc/elements/1.1/"
   xmlns:cc="http://creativecommons.org/ns#"
   xmlns:rdf="http://www.w3.org/1999/02/22-rdf-syntax-ns#"
   xmlns:svg="http://www.w3.org/2000/svg"
   xmlns="http://www.w3.org/2000/svg"
   xmlns:sodipodi="http://sodipodi.sourceforge.net/DTD/sodipodi-0.dtd"
   xmlns:inkscape="http://www.inkscape.org/namespaces/inkscape"
   viewBox="0 0 21.259841 21.259843"
   version="1.1"
   xml:space="preserve"
   style="clip-rule:evenodd;fill-rule:evenodd;stroke-linejoin:round;stroke-miterlimit:1.41420996"
   x="0px"
   y="0px"
   stroke-miterlimit="1.41421"
   id="svg2"
   inkscape:version="0.91 r13725"
   sodipodi:docname="MethodSpecification_Icon.svg"
   width="5.9999995mm"
   height="6mm"><metadata
     id="metadata14"><rdf:RDF><cc:Work
         rdf:about=""><dc:format>image/svg+xml</dc:format><dc:type
           rdf:resource="http://purl.org/dc/dcmitype/StillImage" /><dc:title></dc:title></cc:Work></rdf:RDF></metadata><defs
     id="defs12" /><sodipodi:namedview
     pagecolor="#ffffff"
     bordercolor="#666666"
     borderopacity="1"
     objecttolerance="10"
     gridtolerance="10"
     guidetolerance="10"
     inkscape:pageopacity="0"
     inkscape:pageshadow="2"
     inkscape:window-width="1887"
     inkscape:window-height="1176"
     id="namedview10"
     showgrid="false"
     units="mm"
     fit-margin-top="0.5"
     fit-margin-left="0.5"
     fit-margin-right="0.5"
     fit-margin-bottom="0.5"
     inkscape:zoom="5.2444444"
     inkscape:cx="25.991963"
     inkscape:cy="14.656494"
     inkscape:window-x="1953"
     inkscape:window-y="24"
     inkscape:window-maximized="1"
     inkscape:current-layer="svg2" /><path
     d="m 11.274092,1.7955058 c -0.428705,-0.031803 -0.859955,-0.031803 -1.2886595,0 L 9.4015277,4.2074505 C 9.0898576,4.2672403 8.7820039,4.3486561 8.4830551,4.4529702 L 6.7707779,2.6567329 C 6.3840525,2.8437349 6.0100485,3.0599958 5.6551262,3.3016991 L 6.3547937,5.6818408 C 6.1143625,5.8891968 5.8891968,6.1143625 5.6818408,6.3547937 L 3.3016991,5.6551262 C 3.0599958,6.0100484 2.8437349,6.3840525 2.6567329,6.7707778 L 4.4529702,8.483055 C 4.3486561,8.7820039 4.2672403,9.0898576 4.2074505,9.4015277 L 1.7955058,9.985432 c -0.031803,0.428705 -0.031803,0.859955 0,1.28866 l 2.4119447,0.583905 c 0.05979,0.312942 0.1412056,0.619523 0.2455197,0.919744 l -1.7962373,1.712278 c 0.187002,0.386725 0.4032629,0.759457 0.6449662,1.115651 l 2.3801417,-0.699667 c 0.207356,0.239159 0.4325217,0.464325 0.6729529,0.671681 l -0.6996675,2.381413 c 0.3549223,0.241704 0.7289263,0.456693 1.1156517,0.643695 l 1.7122772,-1.796238 c 0.2989488,0.104314 0.6068025,0.187002 0.9184726,0.246792 l 0.5839048,2.411945 c 0.4287045,0.03053 0.8599545,0.03053 1.2886595,0 l 0.583904,-2.411945 c 0.312942,-0.05979 0.619524,-0.142478 0.919745,-0.246792 l 1.712277,1.796238 c 0.386725,-0.187002 0.759457,-0.401991 1.115652,-0.643695 l -0.699668,-2.381413 c 0.239159,-0.207356 0.464325,-0.432522 0.671681,-0.671681 l 2.381414,0.699667 c 0.241703,-0.356194 0.456692,-0.728926 0.643694,-1.115651 l -1.796237,-1.712278 c 0.104314,-0.300221 0.187002,-0.606802 0.246791,-0.919744 l 2.411945,-0.583905 c 0.03053,-0.428705 0.03053,-0.859955 0,-1.28866 L 17.053345,9.4015277 C 16.993556,9.0898576 16.910868,8.7820039 16.806554,8.483055 L 18.602791,6.7707778 C 18.415789,6.3840525 18.2008,6.0100484 17.959097,5.6551262 L 15.577683,6.3547937 C 15.370327,6.1143625 15.145161,5.8891968 14.906002,5.6818408 L 15.60567,3.3016991 C 15.249475,3.0599958 14.876743,2.8437349 14.490018,2.6567329 L 12.777741,4.4529702 C 12.47752,4.3486561 12.170938,4.2672403 11.857996,4.2074505 L 11.274092,1.7955058 Z m -0.643694,6.9699605 c 1.029147,0 1.864932,0.8357846 1.864932,1.8649317 0,1.029147 -0.835785,1.864932 -1.864932,1.864932 -1.029147,0 -1.8649317,-0.835785 -1.8649317,-1.864932 0,-1.0291471 0.8357847,-1.8649317 1.8649317,-1.8649317 z"
     style="fill:#000000"
     id="path4"
     inkscape:connector-curvature="0" /><text
     x="-0.89121741"
     y="41.088833"
     font-size="5px"
     font-weight="bold"
     id="text6"
     style="font-weight:bold;font-size:6.36061382px;font-family:'Helvetica Neue', Helvetica, Arial-Unicode, Arial, Sans-serif;fill:#000000" />
<text
     x="-0.89121741"
     y="47.449448"
     font-size="5px"
     font-weight="bold"
     id="text8"
     style="font-weight:bold;font-size:6.36061382px;font-family:'Helvetica Neue', Helvetica, Arial-Unicode, Arial, Sans-serif;fill:#000000" />
</svg>