<?xml version="1.0" encoding="UTF-8" standalone="no"?>
<svg
   xmlns:dc="http://purl.org/dc/elements/1.1/"
   xmlns:cc="http://creativecommons.org/ns#"
   xmlns:rdf="http://www.w3.org/1999/02/22-rdf-syntax-ns#"
   xmlns:svg="http://www.w3.org/2000/svg"
   xmlns="http://www.w3.org/2000/svg"
   xmlns:sodipodi="http://sodipodi.sourceforge.net/DTD/sodipodi-0.dtd"
   xmlns:inkscape="http://www.inkscape.org/namespaces/inkscape"
   version="1.1"
   x="0px"
   y="0px"
   viewBox="0 0 22.858496 21.259843"
   enable-background="new 0 0 100 100"
   xml:space="preserve"
   id="svg2"
   inkscape:version="0.91 r13725"
   sodipodi:docname="Tenant_Icon.svg"
   width="6.4511757mm"
   height="6mm"><metadata
     id="metadata16"><rdf:RDF><cc:Work
         rdf:about=""><dc:format>image/svg+xml</dc:format><dc:type
           rdf:resource="http://purl.org/dc/dcmitype/StillImage" /><dc:title></dc:title></cc:Work></rdf:RDF></metadata><defs
     id="defs14" /><sodipodi:namedview
     pagecolor="#ffffff"
     bordercolor="#666666"
     borderopacity="1"
     objecttolerance="10"
     gridtolerance="10"
     guidetolerance="10"
     inkscape:pageopacity="0"
     inkscape:pageshadow="2"
     inkscape:window-width="1887"
     inkscape:window-height="1176"
     id="namedview12"
     showgrid="false"
     fit-margin-top="0.5"
     fit-margin-left="0.5"
     fit-margin-right="0.5"
     fit-margin-bottom="0.5"
     inkscape:zoom="1.888"
     inkscape:cx="-81.142482"
     inkscape:cy="30.550653"
     inkscape:window-x="1953"
     inkscape:window-y="24"
     inkscape:window-maximized="1"
     inkscape:current-layer="svg2"
     units="mm" /><g
     id="g4"
     transform="matrix(0.21461321,0,0,0.21461321,0.69837288,-0.10149055)"><path
       d="M 94.708,89.897 C 92.774,83.236 90.218,79.02 87.681,76.316 83.506,71.865 79.371,71.513 78.11,71.22 77.871,71.168 77.632,71.116 77.391,71.073 76.62,70.357 76.007,69.36 75.535,68.165 74.347,65.174 73.998,60.92 74.029,56.695 c 0.066,-7.607 1.403,-15.144 1.403,-15.144 0,0 0,0 0,-0.002 0,-1.053 -0.026,-2.064 -0.064,-3.053 -0.013,-0.313 -0.034,-0.61 -0.05,-0.916 -0.036,-0.668 -0.074,-1.326 -0.133,-1.964 -0.029,-0.336 -0.062,-0.661 -0.094,-0.991 -0.058,-0.589 -0.129,-1.163 -0.206,-1.724 -0.04,-0.314 -0.081,-0.629 -0.128,-0.936 -0.086,-0.574 -0.182,-1.135 -0.282,-1.681 -0.052,-0.25 -0.093,-0.51 -0.142,-0.76 -0.154,-0.745 -0.319,-1.471 -0.497,-2.167 -0.011,-0.025 -0.013,-0.051 -0.021,-0.081 -0.19,-0.73 -0.394,-1.422 -0.612,-2.09 -0.07,-0.199 -0.137,-0.39 -0.205,-0.583 -0.15,-0.46 -0.319,-0.914 -0.488,-1.349 -0.084,-0.219 -0.172,-0.435 -0.26,-0.643 -0.16,-0.394 -0.336,-0.777 -0.509,-1.147 -0.093,-0.204 -0.185,-0.407 -0.281,-0.602 -0.19,-0.375 -0.381,-0.737 -0.573,-1.086 -0.092,-0.165 -0.183,-0.332 -0.272,-0.49 -0.259,-0.45 -0.537,-0.886 -0.807,-1.299 -0.025,-0.041 -0.05,-0.086 -0.082,-0.129 -0.308,-0.456 -0.625,-0.888 -0.941,-1.295 -0.095,-0.12 -0.19,-0.231 -0.289,-0.345 -0.231,-0.285 -0.461,-0.561 -0.698,-0.825 -0.124,-0.13 -0.244,-0.254 -0.366,-0.387 -0.216,-0.233 -0.438,-0.456 -0.664,-0.672 -0.124,-0.122 -0.246,-0.24 -0.37,-0.354 -0.235,-0.214 -0.469,-0.413 -0.706,-0.612 -0.116,-0.096 -0.231,-0.195 -0.345,-0.285 -0.3,-0.235 -0.602,-0.462 -0.908,-0.674 C 64.392,12.37 64.338,12.329 64.293,12.298 63.939,12.051 63.58,11.824 63.223,11.61 63.119,11.55 63.015,11.494 62.914,11.437 62.659,11.287 62.402,11.148 62.156,11.021 62.021,10.95 61.892,10.888 61.761,10.824 61.531,10.713 61.308,10.605 61.08,10.505 60.945,10.447 60.816,10.392 60.684,10.336 60.453,10.237 60.228,10.152 59.995,10.066 59.877,10.021 59.753,9.974 59.641,9.931 59.373,9.835 59.101,9.747 58.842,9.668 58.769,9.647 58.692,9.619 58.623,9.599 58.291,9.501 57.971,9.415 57.653,9.336 57.547,9.31 57.45,9.291 57.347,9.27 57.13,9.221 56.914,9.169 56.706,9.129 56.584,9.106 56.462,9.082 56.347,9.063 56.163,9.03 55.979,9 55.806,8.972 55.684,8.953 55.566,8.936 55.457,8.923 55.285,8.9 55.112,8.878 54.945,8.861 54.834,8.85 54.728,8.836 54.626,8.825 54.45,8.81 54.281,8.793 54.114,8.782 54.026,8.778 53.94,8.767 53.863,8.763 53.63,8.748 53.416,8.743 53.206,8.733 53.11,8.73 53.026,8.73 52.93,8.73 c -0.103,0 -0.214,-0.002 -0.314,-0.002 -0.514,0 -0.925,0.02 -1.216,0.045 -0.041,0 -0.066,0.002 -0.099,0.007 -0.104,0.006 -0.188,0.015 -0.248,0.021 -0.023,0.002 -0.052,0.004 -0.067,0.009 -0.058,0.002 -0.092,0.009 -0.092,0.009 -0.3,-0.02 -0.598,-0.032 -0.891,-0.043 -0.293,0.008 -0.589,0.023 -0.891,0.039 0,0 -0.036,-0.002 -0.092,-0.009 C 49,8.804 48.973,8.802 48.956,8.8 48.898,8.794 48.809,8.785 48.708,8.777 48.68,8.775 48.648,8.775 48.609,8.773 48.316,8.747 47.907,8.728 47.393,8.728 c -0.103,0 -0.218,0 -0.328,0 -0.09,0 -0.167,0 -0.259,0.002 -0.21,0.007 -0.435,0.017 -0.666,0.03 -0.068,0.004 -0.146,0.011 -0.218,0.017 -0.173,0.011 -0.354,0.025 -0.544,0.047 -0.099,0.006 -0.199,0.02 -0.295,0.032 -0.178,0.02 -0.355,0.043 -0.542,0.066 -0.107,0.015 -0.214,0.032 -0.323,0.047 -0.195,0.03 -0.387,0.063 -0.589,0.101 -0.104,0.019 -0.212,0.036 -0.319,0.056 -0.233,0.047 -0.462,0.101 -0.707,0.152 -0.082,0.019 -0.159,0.039 -0.246,0.056 -0.328,0.077 -0.66,0.165 -0.994,0.268 -0.054,0.013 -0.107,0.034 -0.163,0.049 -0.278,0.088 -0.563,0.18 -0.85,0.28 -0.109,0.039 -0.221,0.082 -0.332,0.125 -0.24,0.09 -0.478,0.184 -0.719,0.285 -0.122,0.049 -0.246,0.103 -0.366,0.158 -0.24,0.101 -0.478,0.219 -0.719,0.334 -0.12,0.058 -0.242,0.116 -0.362,0.18 -0.264,0.137 -0.536,0.287 -0.803,0.443 -0.088,0.053 -0.18,0.098 -0.27,0.154 -0.36,0.216 -0.722,0.445 -1.086,0.696 -0.034,0.024 -0.066,0.049 -0.098,0.073 -0.321,0.225 -0.64,0.463 -0.957,0.715 -0.107,0.083 -0.214,0.176 -0.321,0.261 -0.246,0.204 -0.488,0.416 -0.73,0.634 -0.122,0.113 -0.242,0.229 -0.36,0.34 -0.233,0.221 -0.458,0.452 -0.685,0.692 -0.116,0.122 -0.231,0.244 -0.345,0.368 -0.244,0.27 -0.484,0.555 -0.722,0.846 -0.088,0.109 -0.176,0.21 -0.263,0.323 -0.326,0.411 -0.643,0.844 -0.953,1.304 -0.023,0.035 -0.042,0.073 -0.064,0.103 -0.283,0.422 -0.553,0.865 -0.829,1.328 -0.088,0.152 -0.169,0.317 -0.259,0.475 -0.195,0.357 -0.392,0.724 -0.58,1.103 -0.097,0.195 -0.187,0.392 -0.278,0.593 -0.173,0.377 -0.345,0.765 -0.516,1.163 -0.083,0.21 -0.173,0.417 -0.255,0.632 -0.171,0.441 -0.336,0.899 -0.495,1.368 -0.062,0.19 -0.135,0.37 -0.192,0.565 -0.221,0.672 -0.428,1.368 -0.619,2.096 -0.006,0.028 -0.015,0.06 -0.019,0.088 -0.178,0.694 -0.347,1.417 -0.495,2.163 -0.047,0.246 -0.09,0.503 -0.139,0.75 -0.101,0.546 -0.199,1.111 -0.287,1.687 -0.047,0.304 -0.085,0.619 -0.128,0.932 -0.075,0.561 -0.146,1.135 -0.199,1.728 -0.036,0.33 -0.066,0.655 -0.096,0.994 -0.051,0.634 -0.099,1.291 -0.135,1.957 -0.017,0.308 -0.039,0.606 -0.049,0.923 -0.041,0.987 -0.066,2 -0.066,3.051 0,0 0,0 0,0.002 0,0 1.334,7.539 1.402,15.144 0.041,4.227 -0.313,8.477 -1.503,11.474 -0.478,1.192 -1.083,2.192 -1.856,2.901 -0.249,0.047 -0.482,0.099 -0.715,0.154 -1.267,0.293 -5.397,0.643 -9.573,5.092 -2.54,2.708 -5.096,6.931 -7.031,13.585 -0.13,0.45 -0.217,0.906 -0.282,1.366 l 90,0 C 94.926,90.81 94.836,90.35 94.708,89.897 Z M 66.665,69.876 c -0.077,0.662 -0.374,1.304 -0.846,1.912 -2.222,2.841 -8.47,6.945 -15.827,6.945 -7.361,0 -13.609,-4.1 -15.836,-6.945 -0.469,-0.608 -0.764,-1.246 -0.844,-1.912 l 0,-0.002 c 0.109,-0.041 0.362,-0.129 0.7,-0.283 0.137,-0.058 0.292,-0.135 0.443,-0.22 1.347,-0.705 3.325,-2.178 3.325,-4.771 l 0.002,0 c 2.122,2.101 4.488,3.772 7.01,4.771 1.696,0.674 3.466,1.047 5.284,1.047 1.82,0 3.589,-0.373 5.284,-1.047 2.501,-0.989 4.837,-2.634 6.952,-4.713 0.016,0.009 0.03,0.015 0.045,0.023 0.05,3.338 3.404,4.803 4.311,5.141 0.004,0.011 0.002,0.031 -0.003,0.054 z m 3.878,-24.749 c -0.334,1.882 -1.068,3.434 -1.846,4.098 -0.314,0.261 -0.636,0.385 -0.938,0.334 -0.172,-0.03 -0.334,-0.114 -0.474,-0.247 -1.726,5.361 -5.019,10.704 -9.177,13.917 -2.428,1.869 -5.147,3.012 -8.025,3.012 -2.893,0 -5.629,-1.158 -8.068,-3.051 -4.136,-3.214 -7.417,-8.539 -9.132,-13.878 -0.141,0.129 -0.293,0.214 -0.469,0.247 -0.351,0.062 -0.73,-0.116 -1.088,-0.476 -0.724,-0.728 -1.387,-2.197 -1.704,-3.957 -0.416,-2.319 -0.085,-4.366 0.732,-4.953 0.111,-0.079 0.233,-0.133 0.362,-0.154 0.291,-0.049 0.597,0.06 0.895,0.302 0,0 0,-0.021 0.006,-0.066 0.103,-1.006 1.443,-12.299 9.898,-11.515 l 25.847,13.305 2.101,-2.021 c 0.068,0.013 0.144,0.037 0.208,0.066 0.917,0.434 1.315,2.584 0.872,5.037 z"
       id="path6"
       inkscape:connector-curvature="0"
       style="fill:#000000" /></g></svg>