<?xml version="1.0" encoding="UTF-8" standalone="no"?>
<svg
   xmlns:dc="http://purl.org/dc/elements/1.1/"
   xmlns:cc="http://creativecommons.org/ns#"
   xmlns:rdf="http://www.w3.org/1999/02/22-rdf-syntax-ns#"
   xmlns:svg="http://www.w3.org/2000/svg"
   xmlns="http://www.w3.org/2000/svg"
   xmlns:sodipodi="http://sodipodi.sourceforge.net/DTD/sodipodi-0.dtd"
   xmlns:inkscape="http://www.inkscape.org/namespaces/inkscape"
   version="1.1"
   x="0px"
   y="0px"
   viewBox="0 0 63.493454 31.889767"
   enable-background="new 0 0 100 100"
   xml:space="preserve"
   id="svg2"
   inkscape:version="0.91 r13725"
   sodipodi:docname="Tenants_Icon.svg"
   width="17.919264mm"
   height="9.000001mm"><metadata
     id="metadata32"><rdf:RDF><cc:Work
         rdf:about=""><dc:format>image/svg+xml</dc:format><dc:type
           rdf:resource="http://purl.org/dc/dcmitype/StillImage" /><dc:title></dc:title></cc:Work></rdf:RDF></metadata><defs
     id="defs30" /><sodipodi:namedview
     pagecolor="#ffffff"
     bordercolor="#666666"
     borderopacity="1"
     objecttolerance="10"
     gridtolerance="10"
     guidetolerance="10"
     inkscape:pageopacity="0"
     inkscape:pageshadow="2"
     inkscape:window-width="1887"
     inkscape:window-height="1176"
     id="namedview28"
     showgrid="false"
     fit-margin-top="0.5"
     fit-margin-left="0.5"
     fit-margin-right="0.5"
     fit-margin-bottom="0.5"
     inkscape:zoom="5.3400704"
     inkscape:cx="-64.182813"
     inkscape:cy="-1.8093276"
     inkscape:window-x="1953"
     inkscape:window-y="24"
     inkscape:window-maximized="1"
     inkscape:current-layer="svg2"
     units="mm" /><g
     id="g4"
     transform="matrix(0.66611342,0,0,0.66611342,-1.559207,-17.361122)"><path
       d="m 58.895,42.252 c -0.028,-0.014 -0.059,-0.024 -0.091,-0.03 L 57.9,43.095 46.75,37.356 c -0.122,-0.011 -0.241,-0.017 -0.355,-0.017 -3.119,0 -3.791,4.01 -3.897,4.858 -0.007,0.056 -0.012,0.099 -0.015,0.125 -0.002,0.021 -0.004,0.031 -0.004,0.031 -0.108,-0.088 -0.22,-0.136 -0.328,-0.136 -0.02,0 -0.04,0.001 -0.06,0.005 -0.055,0.01 -0.107,0.033 -0.155,0.067 -0.352,0.253 -0.494,1.137 -0.314,2.136 0.136,0.76 0.422,1.394 0.735,1.707 0.134,0.134 0.274,0.21 0.409,0.21 0.021,0 0.041,-10e-4 0.062,-0.005 0.074,-0.013 0.141,-0.05 0.202,-0.106 0.74,2.304 2.155,4.6 3.939,5.987 1.052,0.817 2.232,1.318 3.48,1.318 1.24,0 2.414,-0.495 3.46,-1.303 1.794,-1.385 3.216,-3.69 3.96,-6.002 0.061,0.057 0.128,0.093 0.203,0.106 0.02,0.004 0.04,0.005 0.061,0.005 0.112,0 0.229,-0.052 0.343,-0.148 0.337,-0.287 0.655,-0.956 0.799,-1.768 0.189,-1.06 0.019,-1.988 -0.38,-2.174 z"
       id="path6"
       inkscape:connector-curvature="0"
       style="fill:none" /><path
       d="m 55.745,52.859 c -0.007,-0.003 -0.013,-0.006 -0.019,-0.009 -0.91,0.896 -1.92,1.606 -2.998,2.034 -0.732,0.29 -1.495,0.451 -2.28,0.451 -0.785,0 -1.548,-0.161 -2.279,-0.451 -1.089,-0.433 -2.108,-1.15 -3.024,-2.059 -0.001,0 -0.001,0 -0.001,0 0,1.117 -0.854,1.754 -1.434,2.059 -0.068,0.035 -0.134,0.067 -0.193,0.094 -0.145,0.066 -0.254,0.105 -0.303,0.121 0,0 0,0 0,0.001 0.035,0.286 0.161,0.563 0.366,0.825 0.958,1.225 3.652,2.995 6.828,2.995 3.174,0 5.869,-1.771 6.827,-2.995 0.205,-0.262 0.332,-0.539 0.367,-0.825 0.001,-0.009 0.001,-0.017 0.002,-0.024 -0.392,-0.144 -1.836,-0.776 -1.859,-2.217 z"
       id="path8"
       inkscape:connector-curvature="0"
       style="fill:none" /><path
       d="m 14.111,46.465 c 0.124,0.124 0.252,0.185 0.375,0.164 0.06,-0.011 0.113,-0.04 0.162,-0.085 0.597,1.856 1.74,3.705 3.183,4.809 0.832,0.637 1.762,1.026 2.744,1.026 1.003,0 1.954,-0.407 2.798,-1.068 1.417,-1.109 2.539,-2.935 3.128,-4.767 0.048,0.045 0.102,0.074 0.162,0.084 0.105,0.019 0.215,-0.024 0.323,-0.115 0.27,-0.228 0.523,-0.762 0.639,-1.411 0.15,-0.846 0.015,-1.587 -0.303,-1.737 -0.023,-0.01 -0.047,-0.019 -0.072,-0.023 -0.098,-0.017 -0.201,0.02 -0.302,0.099 l -0.005,0.007 c 0,-10e-4 -0.001,-10e-4 -0.001,-0.002 -0.001,0.001 -0.001,0.002 -0.002,0.002 0,-0.006 0,-0.012 -0.001,-0.018 -0.382,-1.451 -0.863,-2.339 -1.36,-2.868 -0.097,-0.053 -0.197,-0.1 -0.307,-0.131 -0.013,0.214 0.231,0.54 0.257,0.856 -0.69,-0.321 -1.349,-0.82 -2.311,-0.856 -0.226,-0.008 -0.469,-0.007 -0.719,-10e-4 -2.323,0.83 -4.876,-0.109 -4.876,-0.109 -2.912,-0.271 -3.374,2.754 -3.41,3.101 0,0.008 -10e-4,0.017 -10e-4,0.025 l 0,0 c -0.104,-0.083 -0.21,-0.123 -0.311,-0.104 -0.044,0.007 -0.086,0.026 -0.124,0.053 -0.091,0.065 -0.162,0.188 -0.215,0.344 -0.029,0.407 -0.046,0.819 -0.054,1.244 0.007,0.04 0.01,0.078 0.017,0.118 0.108,0.607 0.336,1.113 0.586,1.363 z"
       id="path10"
       inkscape:connector-curvature="0"
       style="fill:none" /><path
       d="m 86.468,43.974 c -0.022,-0.011 -0.046,-0.019 -0.07,-0.023 l -0.703,0.679 -8.672,-4.464 c -2.835,-0.262 -3.285,3.525 -3.319,3.863 -0.002,0.016 -0.003,0.024 -0.003,0.024 l 0,0 c -0.101,-0.082 -0.203,-0.119 -0.302,-0.102 -0.043,0.007 -0.083,0.025 -0.121,0.052 -0.273,0.197 -0.384,0.884 -0.244,1.661 0.105,0.591 0.328,1.084 0.571,1.328 0.12,0.121 0.246,0.18 0.366,0.159 0.057,-0.01 0.109,-0.039 0.156,-0.083 0.576,1.792 1.677,3.578 3.064,4.656 0.818,0.636 1.736,1.025 2.707,1.025 0.964,0 1.877,-0.385 2.69,-1.014 1.396,-1.078 2.502,-2.869 3.081,-4.668 0.047,0.044 0.1,0.073 0.157,0.083 0.103,0.018 0.21,-0.023 0.314,-0.112 0.262,-0.223 0.509,-0.742 0.621,-1.375 0.15,-0.823 0.017,-1.545 -0.293,-1.689 z"
       id="path12"
       inkscape:connector-curvature="0"
       style="fill:none" /><path
       d="m 84.018,52.224 c -0.005,-0.003 -0.009,-0.005 -0.014,-0.006 -0.707,0.697 -1.493,1.248 -2.332,1.581 -0.569,0.226 -1.163,0.352 -1.773,0.352 -0.61,0 -1.204,-0.126 -1.772,-0.352 -0.847,-0.336 -1.64,-0.896 -2.352,-1.601 -0.001,0 -0.002,0 -0.002,0 0,0.869 -0.664,1.364 -1.115,1.601 -0.053,0.028 -0.104,0.053 -0.15,0.073 -0.112,0.052 -0.197,0.081 -0.235,0.095 l 0,0 c 0.027,0.224 0.126,0.438 0.285,0.642 0.745,0.953 2.841,2.33 5.311,2.33 2.469,0 4.564,-1.377 5.31,-2.33 0.159,-0.203 0.259,-0.418 0.285,-0.641 0.001,-0.008 0.001,-0.014 0.002,-0.021 -0.307,-0.112 -1.431,-0.603 -1.448,-1.723 z"
       id="path14"
       inkscape:connector-curvature="0"
       style="fill:none" /><path
       d="M 33.544,55.864 C 32.1,54.313 30.667,54.193 30.229,54.092 28.85,53.769 27.178,53.906 26.287,53.628 c -0.156,1.306 -2.669,2.344 -5.746,2.344 -3.077,0 -5.589,-1.038 -5.746,-2.344 -0.891,0.278 -2.562,0.141 -3.942,0.464 -0.701,0.164 -3.958,0.372 -5.719,6.437 -0.239,0.823 -0.155,1.718 0.234,2.451 1.443,2.73 9.036,3.57 15.173,3.569 2.808,0 5.918,-0.176 8.606,-0.628 -0.149,-0.893 -0.105,-1.824 0.152,-2.711 0.961,-3.303 2.383,-5.755 4.245,-7.346 z"
       id="path16"
       inkscape:connector-curvature="0"
       style="fill:#000000" /><path
       d="m 13.438,47.173 c 0.649,1.748 1.677,3.444 2.948,4.686 0.72,0.702 1.517,1.26 2.367,1.597 0.585,0.231 1.194,0.36 1.821,0.36 0.627,0 1.236,-0.129 1.821,-0.36 0.88,-0.35 1.704,-0.932 2.442,-1.671 1.24,-1.238 2.242,-2.908 2.879,-4.626 0.489,-0.144 1.003,-1.062 1.211,-2.233 0.228,-1.271 0.013,-2.38 -0.477,-2.565 0.018,-0.311 0.029,-0.625 0.028,-0.946 -0.012,-4.609 -2.713,-7.651 -6.974,-7.937 -3.714,-0.249 -6.512,1.227 -7.787,3.68 -0.429,0.825 -0.674,2.222 -0.768,3.344 -0.143,0.583 -0.227,1.19 -0.227,1.818 l 0.014,0 c 0,0.005 -0.001,0.009 -0.001,0.015 -0.009,10e-4 -0.018,10e-4 -0.027,0.003 -0.543,0.095 -0.791,1.254 -0.553,2.589 0.219,1.226 0.772,2.176 1.283,2.246 z m 0.123,-3.433 c 0.053,-0.156 0.124,-0.278 0.215,-0.344 0.038,-0.027 0.08,-0.046 0.124,-0.053 0.101,-0.018 0.207,0.021 0.311,0.104 l 0,0 c 0,-0.008 10e-4,-0.017 10e-4,-0.025 0.036,-0.347 0.498,-3.372 3.41,-3.101 0,0 2.553,0.938 4.876,0.109 0.25,-0.006 0.493,-0.007 0.719,10e-4 0.961,0.036 1.621,0.535 2.311,0.856 -0.026,-0.316 -0.27,-0.642 -0.257,-0.856 0.11,0.031 0.209,0.078 0.307,0.131 0.497,0.528 0.978,1.417 1.36,2.868 0.001,0.006 0.001,0.012 0.001,0.018 0.001,0 0.001,-10e-4 0.002,-0.002 0,0.001 0.001,0.001 0.001,0.002 l 0.005,-0.007 c 0.101,-0.079 0.204,-0.115 0.302,-0.099 0.025,0.005 0.049,0.013 0.072,0.023 0.317,0.149 0.453,0.891 0.303,1.737 -0.116,0.649 -0.37,1.183 -0.639,1.411 -0.108,0.091 -0.218,0.134 -0.323,0.115 -0.06,-0.01 -0.114,-0.039 -0.162,-0.084 -0.589,1.833 -1.711,3.658 -3.128,4.767 -0.844,0.661 -1.795,1.068 -2.798,1.068 -0.982,0 -1.912,-0.39 -2.744,-1.026 -1.442,-1.104 -2.586,-2.953 -3.183,-4.809 -0.049,0.045 -0.102,0.074 -0.162,0.085 -0.123,0.021 -0.251,-0.041 -0.375,-0.164 -0.25,-0.25 -0.478,-0.756 -0.587,-1.363 -0.007,-0.04 -0.01,-0.079 -0.017,-0.118 0.008,-0.425 0.026,-0.837 0.055,-1.244 z"
       id="path18"
       inkscape:connector-curvature="0" /><path
       d="m 94.87,60.685 c -1.716,-5.903 -4.887,-6.106 -5.569,-6.267 -0.08,-0.019 -0.16,-0.035 -0.24,-0.051 -2.071,-1.914 -0.658,-9.904 -0.658,-9.904 0,-12.178 -8.237,-10.98 -8.237,-10.98 -0.101,-0.006 -0.2,-0.01 -0.299,-0.013 -0.099,0.003 -0.198,0.007 -0.299,0.013 0,0 -8.237,-1.198 -8.237,10.98 0,0 1.414,7.99 -0.657,9.904 -0.081,0.016 -0.162,0.032 -0.24,0.051 -0.408,0.096 -1.708,0.208 -3.053,1.545 1.809,1.593 3.194,4.012 4.135,7.25 0.261,0.901 0.303,1.849 0.146,2.754 2.577,0.419 5.533,0.582 8.206,0.582 5.978,10e-4 13.371,-0.817 14.777,-3.476 0.376,-0.715 0.458,-1.586 0.225,-2.388 z m -9.408,-6.717 c -0.026,0.223 -0.126,0.438 -0.285,0.641 -0.745,0.953 -2.841,2.33 -5.31,2.33 -2.47,0 -4.565,-1.377 -5.311,-2.33 -0.159,-0.203 -0.258,-0.418 -0.285,-0.642 l 0,0 c 0.038,-0.014 0.123,-0.043 0.235,-0.095 0.046,-0.021 0.098,-0.045 0.15,-0.073 0.451,-0.236 1.115,-0.731 1.115,-1.601 0,0 0.001,0 0.002,0 0.712,0.705 1.505,1.265 2.352,1.601 0.568,0.226 1.162,0.352 1.772,0.352 0.61,0 1.204,-0.126 1.773,-0.352 0.839,-0.333 1.625,-0.884 2.332,-1.581 0.005,10e-4 0.009,0.003 0.014,0.006 0.018,1.12 1.142,1.611 1.446,1.724 10e-4,0.006 10e-4,0.012 0,0.02 z m 1.301,-8.304 c -0.112,0.632 -0.359,1.152 -0.621,1.375 -0.104,0.089 -0.212,0.13 -0.314,0.112 -0.058,-0.01 -0.11,-0.038 -0.157,-0.083 -0.579,1.799 -1.686,3.59 -3.081,4.668 -0.813,0.629 -1.727,1.014 -2.69,1.014 -0.971,0 -1.889,-0.39 -2.707,-1.025 -1.388,-1.079 -2.488,-2.864 -3.064,-4.656 -0.047,0.044 -0.1,0.072 -0.156,0.083 -0.12,0.021 -0.246,-0.039 -0.366,-0.159 -0.243,-0.244 -0.466,-0.737 -0.571,-1.328 -0.14,-0.777 -0.029,-1.464 0.244,-1.661 0.038,-0.027 0.078,-0.045 0.121,-0.052 0.099,-0.017 0.201,0.02 0.302,0.102 l 0,0 c 0,0 10e-4,-0.009 0.003,-0.024 0.034,-0.338 0.484,-4.125 3.319,-3.863 l 8.672,4.464 0.703,-0.679 c 0.024,0.004 0.048,0.012 0.07,0.023 0.308,0.143 0.441,0.865 0.293,1.689 z"
       id="path20"
       inkscape:connector-curvature="0" /><path
       d="m 62.537,55.681 c -0.103,-0.024 -0.205,-0.046 -0.31,-0.065 -2.663,-2.461 -0.845,-12.734 -0.845,-12.734 0,-13.083 -7.395,-14.159 -9.827,-14.159 -0.479,0 -0.764,0.042 -0.764,0.042 -0.13,-0.007 -0.258,-0.012 -0.384,-0.017 -0.127,0.004 -0.254,0.01 -0.384,0.017 0,0 -0.286,-0.042 -0.765,-0.042 -2.431,0 -9.827,1.075 -9.827,14.159 0,0 1.818,10.273 -0.845,12.734 -0.104,0.02 -0.208,0.041 -0.308,0.065 -0.879,0.205 -4.956,0.466 -7.163,8.058 -0.299,1.031 -0.193,2.151 0.293,3.07 1.806,3.414 11.298,4.469 18.978,4.469 0.007,0 0.014,0 0.021,0 0.006,0 0.013,0 0.02,0 7.681,0 17.172,-1.054 18.978,-4.469 0.486,-0.919 0.591,-2.039 0.293,-3.07 -2.207,-7.593 -6.284,-7.853 -7.161,-8.058 z m -4.935,-0.58 c -0.035,0.286 -0.162,0.563 -0.367,0.825 -0.958,1.225 -3.652,2.995 -6.827,2.995 -3.176,0 -5.87,-1.771 -6.828,-2.995 -0.205,-0.262 -0.331,-0.539 -0.366,-0.825 0,-10e-4 0,-10e-4 0,-10e-4 0.048,-0.016 0.158,-0.055 0.303,-0.121 0.059,-0.026 0.125,-0.059 0.193,-0.094 0.58,-0.305 1.434,-0.941 1.434,-2.059 0,0 0,0 0.001,0 0.916,0.908 1.935,1.626 3.024,2.059 0.731,0.29 1.495,0.451 2.279,0.451 0.785,0 1.548,-0.161 2.28,-0.451 1.078,-0.428 2.088,-1.138 2.998,-2.034 0.006,0.003 0.012,0.006 0.019,0.009 0.022,1.44 1.467,2.072 1.858,2.217 0,0.007 0,0.015 -0.001,0.024 z m 1.671,-10.676 c -0.144,0.812 -0.462,1.481 -0.799,1.768 -0.114,0.096 -0.23,0.148 -0.343,0.148 -0.021,0 -0.041,-10e-4 -0.061,-0.005 -0.075,-0.013 -0.143,-0.049 -0.203,-0.106 -0.744,2.313 -2.166,4.617 -3.96,6.002 -1.047,0.808 -2.221,1.303 -3.46,1.303 -1.248,0 -2.428,-0.501 -3.48,-1.318 -1.785,-1.387 -3.199,-3.683 -3.939,-5.987 -0.061,0.056 -0.128,0.093 -0.202,0.106 -0.021,0.004 -0.041,0.005 -0.062,0.005 -0.135,0 -0.274,-0.076 -0.409,-0.21 -0.313,-0.313 -0.599,-0.947 -0.735,-1.707 -0.179,-1 -0.037,-1.883 0.314,-2.136 0.048,-0.034 0.1,-0.057 0.155,-0.067 0.02,-0.003 0.041,-0.005 0.06,-0.005 0.108,0 0.219,0.048 0.328,0.136 0,0 0.001,-0.011 0.004,-0.031 0.003,-0.026 0.007,-0.069 0.015,-0.125 0.107,-0.848 0.778,-4.858 3.897,-4.858 0.115,0 0.234,0.005 0.355,0.017 l 11.149,5.739 0.904,-0.873 c 0.032,0.005 0.063,0.016 0.091,0.03 0.402,0.187 0.572,1.115 0.381,2.174 z"
       id="path22"
       inkscape:connector-curvature="0" /></g></svg>